<svg width="135" height="18" viewBox="0 0 135 18" fill="none" xmlns="http://www.w3.org/2000/svg">
<path d="M5.56002 16.4C5.32002 16.4 5.10669 16.3267 4.92002 16.18C4.73336 16.0333 4.60002 15.8333 4.52002 15.58L0.500023 2.22C0.36669 1.78 0.373357 1.43333 0.520023 1.18C0.680023 0.913332 0.933357 0.779999 1.28002 0.779999C1.50669 0.779999 1.71336 0.846665 1.90002 0.979999C2.08669 1.1 2.22002 1.29333 2.30002 1.56L5.57262 12.9673L8.60002 1.68C8.65336 1.48 8.77336 1.31333 8.96002 1.18C9.14669 1.04667 9.36002 0.979999 9.60002 0.979999C9.81336 0.979999 10.0134 1.04 10.2 1.16C10.4 1.26667 10.5267 1.43333 10.58 1.66L13.84 13.76L16.96 1.46C17.0934 1.00667 17.4334 0.779999 17.98 0.779999C18.3534 0.779999 18.5934 0.926665 18.7 1.22C18.8067 1.5 18.8067 1.83333 18.7 2.22L14.68 15.56C14.5867 15.8133 14.4467 16.02 14.26 16.18C14.0867 16.3267 13.88 16.4 13.64 16.4C13.3867 16.4 13.1667 16.32 12.98 16.16C12.8067 16 12.68 15.8067 12.6 15.58L9.61835 4.06073L6.60002 15.56C6.50669 15.8133 6.36669 16.02 6.18002 16.18C6.00669 16.3267 5.80002 16.4 5.56002 16.4Z" fill="#0043FF"/>
<path d="M18.16 17.28C17.7867 17.28 17.5 17.1267 17.3 16.82C17.1134 16.5267 17.0934 16.2 17.24 15.84L23.2601 0.779992C23.3401 0.593325 23.4667 0.446659 23.64 0.339992C23.8134 0.233326 24.0001 0.179993 24.2001 0.179993C24.5467 0.179993 24.8201 0.326659 25.0201 0.619992C25.2334 0.899992 25.2667 1.23333 25.1201 1.61999L19.1001 16.68C19.0201 16.8933 18.8867 17.0467 18.7 17.14C18.5267 17.2333 18.3467 17.28 18.16 17.28Z" fill="#00069A"/>
<path d="M22.9046 17.48C22.5313 17.48 22.2446 17.3267 22.0446 17.02C21.8579 16.7267 21.8379 16.4 21.9846 16.04L28.0046 0.980006C28.0846 0.79334 28.2113 0.646673 28.3846 0.540006C28.5579 0.43334 28.7446 0.380007 28.9446 0.380007C29.2913 0.380007 29.5646 0.526673 29.7646 0.820006C29.9779 1.10001 30.0113 1.43334 29.8646 1.82001L23.8446 16.88C23.7646 17.0933 23.6313 17.2467 23.4446 17.34C23.2713 17.4333 23.0913 17.48 22.9046 17.48Z" fill="#00069A"/>
<path d="M74.9459 16C74.6525 16 74.4059 15.9 74.2059 15.7C74.0192 15.5 73.9259 15.26 73.9259 14.98V5.12001C73.9259 4.12001 74.1192 3.26001 74.5059 2.54001C74.9059 1.80667 75.5259 1.24001 76.3659 0.840006C77.2192 0.440006 78.3192 0.240005 79.6659 0.240005C80.3059 0.240005 80.8592 0.313339 81.3259 0.460006C81.8059 0.606673 82.1792 0.806672 82.4459 1.06001C82.7125 1.31334 82.8459 1.61334 82.8459 1.96001C82.8459 2.54667 82.4859 2.84001 81.7659 2.84001C81.4859 2.84001 81.2325 2.78001 81.0059 2.66001C80.7925 2.54001 80.5792 2.40001 80.3659 2.24001C80.1525 2.08001 79.9259 1.94001 79.6859 1.82001C79.4459 1.70001 79.1659 1.64001 78.8459 1.64001C78.3525 1.64001 77.8859 1.74001 77.4459 1.94001C77.0059 2.12667 76.6459 2.47334 76.3659 2.98001C76.0992 3.48667 75.9659 4.20001 75.9659 5.12001V14.98C75.9659 15.26 75.8659 15.5 75.6659 15.7C75.4792 15.9 75.2392 16 74.9459 16ZM73.0659 7.18001C72.7859 7.18001 72.5592 7.10001 72.3859 6.94001C72.2125 6.78001 72.1259 6.58001 72.1259 6.34001C72.1259 6.07334 72.2125 5.86001 72.3859 5.70001C72.5592 5.54001 72.7859 5.46001 73.0659 5.46001H78.0259C78.3059 5.46001 78.5325 5.54001 78.7059 5.70001C78.8792 5.86001 78.9659 6.07334 78.9659 6.34001C78.9659 6.58001 78.8792 6.78001 78.7059 6.94001C78.5325 7.10001 78.3059 7.18001 78.0259 7.18001H73.0659ZM81.6059 16C81.3125 16 81.0659 15.9067 80.8659 15.72C80.6792 15.52 80.5859 15.2733 80.5859 14.98V6.08001C80.5859 5.77334 80.6792 5.52667 80.8659 5.34001C81.0659 5.15334 81.3125 5.06001 81.6059 5.06001C81.9125 5.06001 82.1592 5.15334 82.3459 5.34001C82.5325 5.52667 82.6259 5.77334 82.6259 6.08001V14.98C82.6259 15.2733 82.5325 15.52 82.3459 15.72C82.1592 15.9067 81.9125 16 81.6059 16Z" fill="#00069A"/>
<path d="M95.583 16.02C95.2897 16.02 95.043 15.9267 94.843 15.74C94.6564 15.54 94.563 15.2933 94.563 15V10.08C94.563 9.32001 94.423 8.70001 94.143 8.22001C93.863 7.74001 93.483 7.38667 93.003 7.16001C92.5364 6.92001 91.9964 6.80001 91.383 6.80001C90.823 6.80001 90.3164 6.91334 89.863 7.14001C89.4097 7.36667 89.0497 7.67334 88.783 8.06001C88.5164 8.43334 88.383 8.86667 88.383 9.36001H87.123C87.123 8.52001 87.323 7.77334 87.723 7.12001C88.1364 6.45334 88.6964 5.92667 89.403 5.54001C90.1097 5.15334 90.903 4.96001 91.783 4.96001C92.703 4.96001 93.523 5.16001 94.243 5.56001C94.9764 5.94667 95.5497 6.52001 95.963 7.28001C96.3897 8.04001 96.603 8.97334 96.603 10.08V15C96.603 15.2933 96.503 15.54 96.303 15.74C96.1164 15.9267 95.8764 16.02 95.583 16.02ZM87.363 16.02C87.0697 16.02 86.823 15.9267 86.623 15.74C86.4364 15.54 86.343 15.2933 86.343 15V6.08001C86.343 5.77334 86.4364 5.52667 86.623 5.34001C86.823 5.15334 87.0697 5.06001 87.363 5.06001C87.6697 5.06001 87.9164 5.15334 88.103 5.34001C88.2897 5.52667 88.383 5.77334 88.383 6.08001V15C88.383 15.2933 88.2897 15.54 88.103 15.74C87.9164 15.9267 87.6697 16.02 87.363 16.02Z" fill="#00069A"/>
<path d="M104.936 16.08C103.896 16.08 102.956 15.84 102.116 15.36C101.289 14.8667 100.629 14.2 100.136 13.36C99.6559 12.52 99.4159 11.5733 99.4159 10.52C99.4159 9.46667 99.6359 8.52667 100.076 7.70001C100.529 6.86001 101.143 6.20001 101.916 5.72001C102.689 5.22667 103.563 4.98001 104.536 4.98001C105.323 4.98001 106.049 5.14667 106.716 5.48001C107.383 5.80001 107.943 6.24001 108.396 6.80001V1.40001C108.396 1.09334 108.489 0.846673 108.676 0.660006C108.876 0.473339 109.123 0.380006 109.416 0.380006C109.723 0.380006 109.969 0.473339 110.156 0.660006C110.343 0.846673 110.436 1.09334 110.436 1.40001V10.52C110.436 11.5733 110.189 12.52 109.696 13.36C109.216 14.2 108.563 14.8667 107.736 15.36C106.909 15.84 105.976 16.08 104.936 16.08ZM104.936 14.28C105.616 14.28 106.223 14.12 106.756 13.8C107.289 13.4667 107.709 13.0133 108.016 12.44C108.323 11.8667 108.476 11.2267 108.476 10.52C108.476 9.80001 108.323 9.16001 108.016 8.60001C107.709 8.04001 107.289 7.60001 106.756 7.28001C106.223 6.94667 105.616 6.78001 104.936 6.78001C104.269 6.78001 103.663 6.94667 103.116 7.28001C102.583 7.60001 102.156 8.04001 101.836 8.60001C101.529 9.16001 101.376 9.80001 101.376 10.52C101.376 11.2267 101.529 11.8667 101.836 12.44C102.156 13.0133 102.583 13.4667 103.116 13.8C103.663 14.12 104.269 14.28 104.936 14.28Z" fill="#00069A"/>
<path d="M119.178 16.08C118.072 16.08 117.085 15.8467 116.218 15.38C115.365 14.9 114.692 14.2467 114.198 13.42C113.718 12.58 113.478 11.62 113.478 10.54C113.478 9.44667 113.705 8.48667 114.158 7.66001C114.625 6.82001 115.265 6.16667 116.078 5.70001C116.892 5.22001 117.825 4.98001 118.878 4.98001C119.918 4.98001 120.812 5.21334 121.558 5.68001C122.305 6.13334 122.872 6.76667 123.258 7.58001C123.658 8.38001 123.858 9.30667 123.858 10.36C123.858 10.6133 123.772 10.8267 123.598 11C123.425 11.16 123.205 11.24 122.938 11.24H114.878V9.64001H122.878L122.058 10.2C122.045 9.53334 121.912 8.94001 121.658 8.42001C121.405 7.88667 121.045 7.46667 120.578 7.16001C120.112 6.85334 119.545 6.70001 118.878 6.70001C118.118 6.70001 117.465 6.86667 116.918 7.20001C116.385 7.53334 115.978 7.99334 115.698 8.58001C115.418 9.15334 115.278 9.80667 115.278 10.54C115.278 11.2733 115.445 11.9267 115.778 12.5C116.112 13.0733 116.572 13.5267 117.158 13.86C117.745 14.1933 118.418 14.36 119.178 14.36C119.592 14.36 120.012 14.2867 120.438 14.14C120.878 13.98 121.232 13.8 121.498 13.6C121.698 13.4533 121.912 13.38 122.138 13.38C122.378 13.3667 122.585 13.4333 122.758 13.58C122.985 13.78 123.105 14 123.118 14.24C123.132 14.48 123.025 14.6867 122.798 14.86C122.345 15.22 121.778 15.5133 121.098 15.74C120.432 15.9667 119.792 16.08 119.178 16.08Z" fill="#00069A"/>
<path d="M127.44 9.16001C127.44 8.36001 127.634 7.64667 128.02 7.02001C128.42 6.38001 128.954 5.87334 129.62 5.50001C130.287 5.12667 131.02 4.94001 131.82 4.94001C132.62 4.94001 133.214 5.07334 133.6 5.34001C134 5.59334 134.154 5.90001 134.06 6.26001C134.02 6.44667 133.94 6.59334 133.82 6.70001C133.714 6.79334 133.587 6.85334 133.44 6.88001C133.294 6.90667 133.134 6.90001 132.96 6.86001C132.107 6.68667 131.34 6.67334 130.66 6.82001C129.98 6.96667 129.44 7.24001 129.04 7.64001C128.654 8.04001 128.46 8.54667 128.46 9.16001H127.44ZM127.46 16C127.14 16 126.894 15.92 126.72 15.76C126.547 15.5867 126.46 15.3333 126.46 15V6.06001C126.46 5.74001 126.547 5.49334 126.72 5.32001C126.894 5.14667 127.14 5.06001 127.46 5.06001C127.794 5.06001 128.04 5.14667 128.2 5.32001C128.374 5.48001 128.46 5.72667 128.46 6.06001V15C128.46 15.32 128.374 15.5667 128.2 15.74C128.04 15.9133 127.794 16 127.46 16Z" fill="#00069A"/>
<path d="M39.7396 16.2C38.5663 16.2 37.493 16.0067 36.5196 15.62C35.5463 15.22 34.7063 14.6667 33.9996 13.96C33.3063 13.24 32.7663 12.3933 32.3796 11.42C31.993 10.4333 31.7996 9.35334 31.7996 8.18001C31.7996 7.00667 31.993 5.93334 32.3796 4.96001C32.7663 3.98667 33.3063 3.14667 33.9996 2.44001C34.7063 1.72001 35.5463 1.16667 36.5196 0.780007C37.493 0.380008 38.5663 0.180008 39.7396 0.180008C40.913 0.180008 41.9796 0.380008 42.9396 0.780007C43.913 1.16667 44.753 1.72001 45.4596 2.44001C46.1663 3.14667 46.713 3.98667 47.0996 4.96001C47.4863 5.93334 47.6796 7.00667 47.6796 8.18001C47.6796 9.35334 47.4863 10.4333 47.0996 11.42C46.713 12.3933 46.1663 13.24 45.4596 13.96C44.753 14.6667 43.913 15.22 42.9396 15.62C41.9796 16.0067 40.913 16.2 39.7396 16.2ZM39.7396 14.32C40.6063 14.32 41.3996 14.1667 42.1196 13.86C42.853 13.54 43.4863 13.1067 44.0196 12.56C44.553 12 44.9596 11.3467 45.2396 10.6C45.533 9.85334 45.6796 9.04667 45.6796 8.18001C45.6796 7.31334 45.533 6.50667 45.2396 5.76001C44.9596 5.01334 44.553 4.36667 44.0196 3.82001C43.4863 3.26001 42.853 2.82667 42.1196 2.52001C41.3996 2.21334 40.6063 2.06001 39.7396 2.06001C38.873 2.06001 38.073 2.21334 37.3396 2.52001C36.6196 2.82667 35.993 3.26001 35.4596 3.82001C34.9396 4.36667 34.533 5.01334 34.2396 5.76001C33.9463 6.50667 33.7996 7.31334 33.7996 8.18001C33.7996 9.04667 33.9463 9.85334 34.2396 10.6C34.533 11.3467 34.9396 12 35.4596 12.56C35.993 13.1067 36.6196 13.54 37.3396 13.86C38.073 14.1667 38.873 14.32 39.7396 14.32Z" fill="#0043FF"/>
<path d="M51.7176 9.16001C51.7176 8.36001 51.9109 7.64667 52.2976 7.02001C52.6976 6.38001 53.2309 5.87334 53.8976 5.50001C54.5643 5.12667 55.2976 4.94001 56.0976 4.94001C56.8976 4.94001 57.4909 5.07334 57.8776 5.34001C58.2776 5.59334 58.4309 5.90001 58.3376 6.26001C58.2976 6.44667 58.2176 6.59334 58.0976 6.70001C57.9909 6.79334 57.8642 6.85334 57.7176 6.88001C57.5709 6.90667 57.4109 6.90001 57.2376 6.86001C56.3843 6.68667 55.6176 6.67334 54.9376 6.82001C54.2576 6.96667 53.7176 7.24001 53.3176 7.64001C52.9309 8.04001 52.7376 8.54667 52.7376 9.16001H51.7176ZM51.7376 16C51.4176 16 51.1709 15.92 50.9976 15.76C50.8243 15.5867 50.7376 15.3333 50.7376 15V6.06001C50.7376 5.74001 50.8243 5.49334 50.9976 5.32001C51.1709 5.14667 51.4176 5.06001 51.7376 5.06001C52.0709 5.06001 52.3176 5.14667 52.4776 5.32001C52.6509 5.48001 52.7376 5.72667 52.7376 6.06001V15C52.7376 15.32 52.6509 15.5667 52.4776 15.74C52.3176 15.9133 52.0709 16 51.7376 16Z" fill="#0043FF"/>
<path d="M64.6234 16.08C63.5834 16.08 62.6434 15.84 61.8034 15.36C60.9767 14.8667 60.3167 14.2 59.8234 13.36C59.3434 12.52 59.1034 11.5733 59.1034 10.52C59.1034 9.46667 59.3234 8.52667 59.7634 7.70001C60.2167 6.86001 60.83 6.20001 61.6034 5.72001C62.3767 5.22668 63.25 4.98001 64.2234 4.98001C65.01 4.98001 65.7367 5.14667 66.4034 5.48001C67.07 5.80001 67.63 6.24001 68.0834 6.80001V1.40001C68.0834 1.09334 68.1767 0.846674 68.3634 0.660008C68.5634 0.473341 68.81 0.380008 69.1034 0.380008C69.41 0.380008 69.6567 0.473341 69.8434 0.660008C70.03 0.846674 70.1234 1.09334 70.1234 1.40001V10.52C70.1234 11.5733 69.8767 12.52 69.3834 13.36C68.9034 14.2 68.25 14.8667 67.4234 15.36C66.5967 15.84 65.6634 16.08 64.6234 16.08ZM64.6234 14.28C65.3034 14.28 65.91 14.12 66.4434 13.8C66.9767 13.4667 67.3967 13.0133 67.7034 12.44C68.01 11.8667 68.1634 11.2267 68.1634 10.52C68.1634 9.80001 68.01 9.16001 67.7034 8.60001C67.3967 8.04001 66.9767 7.60001 66.4434 7.28001C65.91 6.94667 65.3034 6.78001 64.6234 6.78001C63.9567 6.78001 63.35 6.94667 62.8034 7.28001C62.27 7.60001 61.8434 8.04001 61.5234 8.60001C61.2167 9.16001 61.0634 9.80001 61.0634 10.52C61.0634 11.2267 61.2167 11.8667 61.5234 12.44C61.8434 13.0133 62.27 13.4667 62.8034 13.8C63.35 14.12 63.9567 14.28 64.6234 14.28Z" fill="#0043FF"/>
</svg>
